<?xml version="1.0" standalone="no"?>
<!DOCTYPE svg PUBLIC "-//W3C//DTD SVG 20010904//EN"
 "http://www.w3.org/TR/2001/REC-SVG-20010904/DTD/svg10.dtd">
<svg version="1.0" xmlns="http://www.w3.org/2000/svg"
 width="464.000000pt" height="464.000000pt" viewBox="0 0 464.000000 464.000000"
 preserveAspectRatio="xMidYMid meet">
<metadata>
Created by potrace 1.14, written by Peter Selinger 2001-2017
</metadata>
<g transform="translate(0.000000,464.000000) scale(0.100000,-0.100000)"
fill="#000000" stroke="none">
<path d="M21 4613 c8 -12 74 -84 145 -160 72 -76 159 -169 195 -207 35 -39
103 -111 150 -160 48 -50 112 -118 143 -151 l56 -60 -85 -3 -85 -3 0 -1549 0
-1550 240 0 240 0 1 938 c0 515 2 933 4 927 5 -14 121 -510 271 -1155 30 -129
61 -262 69 -295 47 -200 66 -278 80 -342 l17 -73 189 0 c143 0 191 3 194 13 3
6 27 120 54 252 27 132 59 285 71 340 12 55 30 143 40 195 19 94 58 280 121
578 18 83 35 152 39 152 3 0 21 -14 38 -31 l32 -31 0 -734 0 -734 240 0 240 0
0 488 c0 439 5 531 24 511 13 -12 15 -78 15 -526 l1 -473 521 0 c502 0 522 -1
546 -20 13 -10 83 -74 155 -142 72 -68 142 -134 157 -147 14 -13 82 -76 150
-140 68 -64 135 -127 150 -140 14 -13 51 -47 81 -75 31 -28 69 -62 85 -76 l30
-25 -20 25 c-34 42 -224 247 -506 545 -133 140 -169 180 -169 188 0 4 36 7 80
7 l80 0 0 235 0 235 -305 0 -304 0 -74 78 c-41 42 -97 102 -126 132 l-51 55 0
287 0 288 315 0 316 0 -5 231 c-2 126 -6 233 -9 236 -5 4 -170 8 -539 12 l-78
1 0 420 0 420 430 0 430 0 0 235 0 235 -670 0 -670 0 0 -902 c0 -835 -4 -971
-25 -916 -12 32 -13 93 -14 951 l-1 869 -324 -4 c-178 -1 -327 -5 -329 -8 -3
-3 -35 -165 -72 -360 -108 -579 -111 -590 -128 -590 -7 0 -46 33 -88 73 -66
63 -186 175 -413 388 l-60 56 -41 212 c-23 116 -45 215 -49 219 -4 4 -92 9
-195 12 l-188 5 -39 33 c-35 30 -152 139 -384 357 -88 83 -314 293 -334 310
-73 63 -70 61 -55 38z m784 -759 c154 -152 446 -438 650 -637 456 -447 1312
-1303 1781 -1783 193 -197 423 -432 510 -520 191 -195 332 -341 359 -374 l20
-24 -30 23 c-16 12 -208 197 -425 410 -217 213 -489 480 -605 592 -306 297
-1257 1251 -1721 1724 -221 226 -497 508 -615 628 -118 120 -215 223 -217 228
-11 28 39 -17 293 -267z m846 -985 c64 -68 132 -143 152 -165 l37 -42 -79
-423 c-44 -233 -85 -455 -91 -492 -7 -38 -16 -65 -20 -60 -5 4 -31 127 -60
273 -28 146 -71 366 -95 490 -101 511 -123 627 -130 675 l-6 50 88 -91 c48
-49 140 -146 204 -215z"/>
</g>
</svg>
