<svg width="40" height="40" viewBox="0 0 40 40" fill="none" xmlns="http://www.w3.org/2000/svg">
<path d="M19.9996 16.0226C17.807 16.0226 16.0218 17.807 16.0218 19.9996C16.0218 22.193 17.807 23.9782 19.9996 23.9782C22.193 23.9782 23.9774 22.193 23.9774 19.9996C23.9774 17.807 22.193 16.0226 19.9996 16.0226ZM19.9996 16.0226C17.807 16.0226 16.0218 17.807 16.0218 19.9996C16.0218 22.193 17.807 23.9782 19.9996 23.9782C22.193 23.9782 23.9774 22.193 23.9774 19.9996C23.9774 17.807 22.193 16.0226 19.9996 16.0226ZM26.6263 9.53723H13.3737C11.2584 9.53723 9.53723 11.2584 9.53723 13.3737V26.6263C9.53723 28.7416 11.2584 30.4628 13.3737 30.4628H26.6263C28.7416 30.4628 30.4628 28.7416 30.4628 26.6263V13.3737C30.4628 11.2584 28.7416 9.53723 26.6263 9.53723ZM19.9996 26.8887C16.2017 26.8887 13.1113 23.7983 13.1113 19.9996C13.1113 16.2017 16.2017 13.1113 19.9996 13.1113C23.7983 13.1113 26.8887 16.2017 26.8887 19.9996C26.8887 23.7983 23.7983 26.8887 19.9996 26.8887ZM27.1099 14.5358C26.2111 14.5358 25.48 13.8047 25.48 12.9059C25.48 12.0071 26.2111 11.276 27.1099 11.276C28.0087 11.276 28.7398 12.0071 28.7398 12.9059C28.7398 13.8047 28.0087 14.5358 27.1099 14.5358ZM19.9996 16.0226C17.807 16.0226 16.0218 17.807 16.0218 19.9996C16.0218 22.193 17.807 23.9782 19.9996 23.9782C22.193 23.9782 23.9774 22.193 23.9774 19.9996C23.9774 17.807 22.193 16.0226 19.9996 16.0226ZM26.6263 9.53723H13.3737C11.2584 9.53723 9.53723 11.2584 9.53723 13.3737V26.6263C9.53723 28.7416 11.2584 30.4628 13.3737 30.4628H26.6263C28.7416 30.4628 30.4628 28.7416 30.4628 26.6263V13.3737C30.4628 11.2584 28.7416 9.53723 26.6263 9.53723ZM19.9996 26.8887C16.2017 26.8887 13.1113 23.7983 13.1113 19.9996C13.1113 16.2017 16.2017 13.1113 19.9996 13.1113C23.7983 13.1113 26.8887 16.2017 26.8887 19.9996C26.8887 23.7983 23.7983 26.8887 19.9996 26.8887ZM27.1099 14.5358C26.2111 14.5358 25.48 13.8047 25.48 12.9059C25.48 12.0071 26.2111 11.276 27.1099 11.276C28.0087 11.276 28.7398 12.0071 28.7398 12.9059C28.7398 13.8047 28.0087 14.5358 27.1099 14.5358ZM19.9996 16.0226C17.807 16.0226 16.0218 17.807 16.0218 19.9996C16.0218 22.193 17.807 23.9782 19.9996 23.9782C22.193 23.9782 23.9774 22.193 23.9774 19.9996C23.9774 17.807 22.193 16.0226 19.9996 16.0226ZM0 0V40H40V0H0ZM33.3733 26.6263C33.3733 30.3469 30.3469 33.3733 26.6263 33.3733H13.3737C9.65308 33.3733 6.62673 30.3469 6.62673 26.6263V13.3737C6.62673 9.65308 9.65308 6.62673 13.3737 6.62673H26.6263C30.3469 6.62673 33.3733 9.65308 33.3733 13.3737V26.6263ZM26.6263 9.53723H13.3737C11.2584 9.53723 9.53723 11.2584 9.53723 13.3737V26.6263C9.53723 28.7416 11.2584 30.4628 13.3737 30.4628H26.6263C28.7416 30.4628 30.4628 28.7416 30.4628 26.6263V13.3737C30.4628 11.2584 28.7416 9.53723 26.6263 9.53723ZM19.9996 26.8887C16.2017 26.8887 13.1113 23.7983 13.1113 19.9996C13.1113 16.2017 16.2017 13.1113 19.9996 13.1113C23.7983 13.1113 26.8887 16.2017 26.8887 19.9996C26.8887 23.7983 23.7983 26.8887 19.9996 26.8887ZM27.1099 14.5358C26.2111 14.5358 25.48 13.8047 25.48 12.9059C25.48 12.0071 26.2111 11.276 27.1099 11.276C28.0087 11.276 28.7398 12.0071 28.7398 12.9059C28.7398 13.8047 28.0087 14.5358 27.1099 14.5358ZM19.9996 16.0226C17.807 16.0226 16.0218 17.807 16.0218 19.9996C16.0218 22.193 17.807 23.9782 19.9996 23.9782C22.193 23.9782 23.9774 22.193 23.9774 19.9996C23.9774 17.807 22.193 16.0226 19.9996 16.0226ZM19.9996 16.0226C17.807 16.0226 16.0218 17.807 16.0218 19.9996C16.0218 22.193 17.807 23.9782 19.9996 23.9782C22.193 23.9782 23.9774 22.193 23.9774 19.9996C23.9774 17.807 22.193 16.0226 19.9996 16.0226ZM19.9996 16.0226C17.807 16.0226 16.0218 17.807 16.0218 19.9996C16.0218 22.193 17.807 23.9782 19.9996 23.9782C22.193 23.9782 23.9774 22.193 23.9774 19.9996C23.9774 17.807 22.193 16.0226 19.9996 16.0226ZM26.6263 9.53723H13.3737C11.2584 9.53723 9.53723 11.2584 9.53723 13.3737V26.6263C9.53723 28.7416 11.2584 30.4628 13.3737 30.4628H26.6263C28.7416 30.4628 30.4628 28.7416 30.4628 26.6263V13.3737C30.4628 11.2584 28.7416 9.53723 26.6263 9.53723ZM19.9996 26.8887C16.2017 26.8887 13.1113 23.7983 13.1113 19.9996C13.1113 16.2017 16.2017 13.1113 19.9996 13.1113C23.7983 13.1113 26.8887 16.2017 26.8887 19.9996C26.8887 23.7983 23.7983 26.8887 19.9996 26.8887ZM27.1099 14.5358C26.2111 14.5358 25.48 13.8047 25.48 12.9059C25.48 12.0071 26.2111 11.276 27.1099 11.276C28.0087 11.276 28.7398 12.0071 28.7398 12.9059C28.7398 13.8047 28.0087 14.5358 27.1099 14.5358ZM19.9996 16.0226C17.807 16.0226 16.0218 17.807 16.0218 19.9996C16.0218 22.193 17.807 23.9782 19.9996 23.9782C22.193 23.9782 23.9774 22.193 23.9774 19.9996C23.9774 17.807 22.193 16.0226 19.9996 16.0226ZM19.9996 16.0226C17.807 16.0226 16.0218 17.807 16.0218 19.9996C16.0218 22.193 17.807 23.9782 19.9996 23.9782C22.193 23.9782 23.9774 22.193 23.9774 19.9996C23.9774 17.807 22.193 16.0226 19.9996 16.0226ZM19.9996 16.0226C17.807 16.0226 16.0218 17.807 16.0218 19.9996C16.0218 22.193 17.807 23.9782 19.9996 23.9782C22.193 23.9782 23.9774 22.193 23.9774 19.9996C23.9774 17.807 22.193 16.0226 19.9996 16.0226ZM26.6263 9.53723H13.3737C11.2584 9.53723 9.53723 11.2584 9.53723 13.3737V26.6263C9.53723 28.7416 11.2584 30.4628 13.3737 30.4628H26.6263C28.7416 30.4628 30.4628 28.7416 30.4628 26.6263V13.3737C30.4628 11.2584 28.7416 9.53723 26.6263 9.53723ZM19.9996 26.8887C16.2017 26.8887 13.1113 23.7983 13.1113 19.9996C13.1113 16.2017 16.2017 13.1113 19.9996 13.1113C23.7983 13.1113 26.8887 16.2017 26.8887 19.9996C26.8887 23.7983 23.7983 26.8887 19.9996 26.8887ZM27.1099 14.5358C26.2111 14.5358 25.48 13.8047 25.48 12.9059C25.48 12.0071 26.2111 11.276 27.1099 11.276C28.0087 11.276 28.7398 12.0071 28.7398 12.9059C28.7398 13.8047 28.0087 14.5358 27.1099 14.5358ZM19.9996 16.0226C17.807 16.0226 16.0218 17.807 16.0218 19.9996C16.0218 22.193 17.807 23.9782 19.9996 23.9782C22.193 23.9782 23.9774 22.193 23.9774 19.9996C23.9774 17.807 22.193 16.0226 19.9996 16.0226Z" fill="#DAB600"/>
</svg>
