<svg width="50" height="50" viewBox="0 0 50 50" fill="none" xmlns="http://www.w3.org/2000/svg">
<path d="M36.0239 2.49705L38.9761 4.20159L35.0659 10.9748L32.1136 9.27023L36.0239 2.49705ZM47.503 13.9761L45.7984 11.0239L39.0252 14.9341L40.7298 17.8864L47.503 13.9761ZM42.1795 26.7045H50V23.2955H42.1795V26.7045ZM39.0252 35.0659L45.7984 38.9761L47.503 36.0239L40.7298 32.1136L39.0252 35.0659ZM32.1136 40.7298L36.0239 47.503L38.9761 45.7984L35.0659 39.0252L32.1136 40.7298ZM23.2955 50H26.7045V42.1795H23.2955V50ZM11.0239 45.7984L13.9761 47.503L17.8864 40.7298L14.9341 39.0252L11.0239 45.7984ZM2.49705 36.0239L4.20159 38.9761L10.9748 35.0659L9.27023 32.1136L2.49705 36.0239ZM0 26.7045H7.82045V23.2955H0V26.7045ZM10.9745 14.9341L4.20159 11.0239L2.49705 13.9761L9.27 17.8864L10.9745 14.9341ZM11.0239 4.20159L14.9341 10.9745L17.8864 9.27L13.9761 2.49705L11.0239 4.20159ZM23.2955 7.82023H26.7045V0H23.2955V7.82023Z" fill="#DAB600"/>
</svg>
