<svg width="40" height="40" viewBox="0 0 40 40" fill="none" xmlns="http://www.w3.org/2000/svg">
<path fill-rule="evenodd" clip-rule="evenodd" d="M0 0V40H40V0H0ZM33.8298 8.85099L29.1302 31.4564C29.0195 31.9901 28.3937 32.2319 27.9521 31.911L21.5367 27.2534C21.1473 26.9705 20.6162 26.9856 20.2433 27.2896L16.6864 30.189C16.2737 30.5266 15.6516 30.3385 15.4935 29.8301L13.0237 21.8871L6.64281 19.5057C5.99464 19.2629 5.9891 18.3478 6.63543 18.0988L32.8229 7.9964C33.378 7.78171 33.9508 8.26804 33.8298 8.85099Z" fill="#DAB600"/>
<path fill-rule="evenodd" clip-rule="evenodd" d="M27.5663 12.9388L15.0956 20.6194C14.6177 20.9144 14.3927 21.4916 14.5469 22.032L15.8952 26.7697C15.9911 27.1053 16.4782 27.071 16.5248 26.7242L16.8753 24.1262C16.9415 23.637 17.1747 23.1861 17.5365 22.8495L27.8283 13.2827C28.021 13.1043 27.7903 12.8012 27.5663 12.9388Z" fill="#DAB600"/>
</svg>
