<svg width="40" height="40" viewBox="0 0 40 40" fill="none" xmlns="http://www.w3.org/2000/svg">
<path d="M20.0181 8.36643C13.6216 8.36643 8.41762 13.5704 8.41762 19.9669C8.41762 22.1956 9.05107 24.36 10.2493 26.2259L10.5373 26.6743L9.409 30.6818L13.5551 29.6145L13.9827 29.8756C15.7956 30.9823 17.8826 31.5673 20.0181 31.5673C26.4146 31.5673 31.6184 26.3634 31.6184 19.9669C31.6184 13.5704 26.4146 8.36643 20.0181 8.36643ZM27.1316 23.5322L26.9868 24.2082C26.8236 24.971 26.3706 25.6457 25.7134 26.066C24.8837 26.5967 23.8083 26.8573 22.4413 26.4708C18.1991 25.2712 15.8 22.4626 14.5127 20.7071C13.2254 18.9517 12.7281 17.1963 13.0498 15.7627C13.2657 14.8013 13.9684 14.0636 14.4078 13.6818C14.6231 13.4949 14.9024 13.3998 15.1871 13.4153L16.0936 13.4647C16.2721 13.4744 16.4295 13.5847 16.4998 13.7491L17.8204 16.8387C17.8909 17.0038 17.8612 17.1946 17.7438 17.3304L16.5944 18.6601C16.5012 18.7679 16.4849 18.9215 16.5506 19.048C18.0645 21.9641 20.8235 23.1196 21.6471 23.4091C21.7874 23.4584 21.943 23.4118 22.0339 23.2939L23.2366 21.7348C23.3704 21.5613 23.6062 21.5034 23.8051 21.5951L26.8688 23.0073C27.0685 23.0993 27.1776 23.3174 27.1316 23.5322Z" fill="#DAB600"/>
<path d="M0 0V40H40V0H0ZM20.018 33.9371C17.6178 33.9371 15.2674 33.3227 13.1882 32.1561L6.01179 34.0034L7.97111 27.0446C6.71115 24.9041 6.04778 22.4687 6.04778 19.9669C6.04778 12.2636 12.3148 5.99661 20.018 5.99661C27.7213 5.99661 33.9882 12.2636 33.9882 19.9669C33.9882 27.6701 27.7213 33.9371 20.018 33.9371Z" fill="#DAB600"/>
</svg>
